<svg xmlns="http://www.w3.org/2000/svg" viewBox="0 0 622.1 762.5"><defs><style>.cls-1{fill:#5b9bf5;}.cls-2{fill:#d34fba;}.cls-3{fill:#f96ad4;}.cls-4{fill:#f9ca7c;}.cls-5{fill:#2e6cb7;}.cls-6{fill:#fff;}</style></defs><g id="Capa_2" data-name="Capa 2"><g id="Capa_26" data-name="Capa 26"><path class="cls-1" d="M123.36,585.5a241.58,241.58,0,0,0,58.53,50.75c21.81,13.41,45.67,23.24,70.23,28A158.84,158.84,0,0,0,289,667.2a126.76,126.76,0,0,0,18.11-2.08,110.36,110.36,0,0,0,17.37-4.66,175.37,175.37,0,0,0,33-16.39,169,169,0,0,0,28.91-22.72c8.6-8.53,16-18.05,21-28.41a68.64,68.64,0,0,0,5.46-16,60.52,60.52,0,0,0,1.07-8.3c.18-2.87.18-5.85.13-8.92-.2-12.28-1.92-26-.59-40.3a98.38,98.38,0,0,1,4.24-21.31,93.37,93.37,0,0,1,9.11-19.7,87.3,87.3,0,0,1,6.21-8.92c2.26-2.82,4.59-5.36,6.72-7.74,4.27-4.8,8.54-9.79,12.76-14.69s8.37-9.91,12.4-15,8-10.14,11.67-15.37a160,160,0,0,0,10.24-16.1A75.74,75.74,0,0,0,494,383.42a37.05,37.05,0,0,0,.38-18.33,31.68,31.68,0,0,0-3.61-8.73,46.6,46.6,0,0,0-5.91-7.75c1.33,1,2.62,2,3.86,3.12a40.84,40.84,0,0,1,3.46,3.62,33.93,33.93,0,0,1,5.4,8.66,36.81,36.81,0,0,1,2.6,10.06,45.65,45.65,0,0,1-.06,10.45,62,62,0,0,1-2.06,10.16,94.11,94.11,0,0,1-3.33,9.71,164.23,164.23,0,0,1-8.88,18.23c-3.31,5.85-6.84,11.53-10.49,17.11s-7.47,11-11.33,16.39-7.82,10.63-11.86,16A95.75,95.75,0,0,0,442,487.13a77.81,77.81,0,0,0-9,33.66,163.6,163.6,0,0,0,.51,18.38c.48,6.34,1.19,12.9,1.56,19.85.18,3.48.22,7.05.08,10.73a80.9,80.9,0,0,1-1.22,11.2,86.81,86.81,0,0,1-6.82,21.29,110.74,110.74,0,0,1-11.23,18.67,132.88,132.88,0,0,1-14,16.05,172.73,172.73,0,0,1-15.85,13.74,178.69,178.69,0,0,1-17.16,11.73A182,182,0,0,1,331.15,680a131,131,0,0,1-20.73,4.85,145.74,145.74,0,0,1-21,1.47,165.88,165.88,0,0,1-41.06-5.47,205.56,205.56,0,0,1-72.44-35.91,212.58,212.58,0,0,1-29.33-27.28q-6.63-7.47-12.48-15.51A196.09,196.09,0,0,1,123.36,585.5Z"/><path class="cls-1" d="M474.3,374.75c2.3-6.38,4.58-12.72,6.77-19s4.23-12.66,6-19c.92-3.16,1.73-6.34,2.47-9.51s1.44-6.34,2-9.51A98.37,98.37,0,0,0,493.12,299a46.3,46.3,0,0,0-3.2-16.79,31.86,31.86,0,0,0-1.79-3.55,39.74,39.74,0,0,0-2.27-3.45c-1.82-2.5-4-5.38-6.05-8.51a68.42,68.42,0,0,1-5.36-10.14,67.17,67.17,0,0,1-3.59-10.93,69.28,69.28,0,0,1-1.68-11.42,70.63,70.63,0,0,1,.24-11.39c.35-3.66.95-7.21,1.3-10.14a26.22,26.22,0,0,0,.23-3.58,7.66,7.66,0,0,0-.12-1.13c0-.08-.37-.78-2.17-1.25a23.36,23.36,0,0,0-7.17-.39,63.26,63.26,0,0,0-8.74,1.39c-3,.65-6.05,1.47-9.1,2.4s-6.09,2-9.15,3-6.08,2.28-9.16,3.48c-.81.31-1.46.6-2.18.9s-1.41.58-2.12.93l-2.13,1-2.13,1.09c-1.42.7-2.83,1.52-4.26,2.26l-4.23,2.41q-4.2,2.52-8.37,5.17c-2.77,1.78-5.49,3.64-8.23,5.5a385.54,385.54,0,0,0-31.63,24.64,193.28,193.28,0,0,1,26.3-31.13c1.24-1.18,2.48-2.36,3.74-3.52s2.57-2.28,3.85-3.42,2.62-2.23,3.93-3.35,2.69-2.15,4.05-3.23a118.61,118.61,0,0,1,17.7-11.62c3-1.61,6.12-3.14,9.26-4.62s6.35-2.9,9.64-4.17a91.76,91.76,0,0,1,21.15-5.89,37.63,37.63,0,0,1,12.86.25,23.06,23.06,0,0,1,7.48,3,18.65,18.65,0,0,1,6.39,6.8,20.11,20.11,0,0,1,2.32,8.55,41.35,41.35,0,0,1-.26,6.45c-.42,3.74-.91,6.82-1.16,9.84a63.9,63.9,0,0,0-.23,8.71,51,51,0,0,0,1.15,8.48,51.89,51.89,0,0,0,6.21,16c1.48,2.59,3.21,5.14,5.18,8.18a54.24,54.24,0,0,1,3,5.13,46.26,46.26,0,0,1,2.31,5.63,53.93,53.93,0,0,1,2.44,11.53,68.58,68.58,0,0,1,0,11.28,78.92,78.92,0,0,1-1.58,10.77,101.44,101.44,0,0,1-2.69,10.29c-1.05,3.36-2.24,6.64-3.51,9.86s-2.68,6.38-4.16,9.48a204,204,0,0,1-9.77,18C482.16,363.69,478.34,369.31,474.3,374.75Z"/><path class="cls-1" d="M435.54,316.82c-.14-1.77-.14-3.4-.14-5s0-3.1.05-4.6c.09-3,.18-5.81.34-8.54.25-5.48.65-10.62,1-15.77s.71-10.29,1.22-15.75c.24-2.72.54-5.54.88-8.5.2-1.48.35-3,.6-4.56s.46-3.19.85-4.92a28.62,28.62,0,0,1,7.07,7.12A38.36,38.36,0,0,1,452,265a46.38,46.38,0,0,1,1,28.87,42.79,42.79,0,0,1-3.73,9,38.71,38.71,0,0,1-5.76,7.9,32.41,32.41,0,0,1-3.67,3.34A23.59,23.59,0,0,1,435.54,316.82Z"/><path class="cls-1" d="M130.54,584.46a128.61,128.61,0,0,1-22.3,6.55,131.86,131.86,0,0,1-23.43,2.66,115.65,115.65,0,0,1-12-.43,96.69,96.69,0,0,1-12.14-2,79.84,79.84,0,0,1-12-3.86,66.51,66.51,0,0,1-11.42-6.17,58.3,58.3,0,0,1-10.07-8.66,55.5,55.5,0,0,1-7.93-10.8A76.39,76.39,0,0,1,13.83,550c-1.41-3.93-2.55-7.77-3.61-11.51-.52-1.88-1-3.73-1.52-5.57L7.29,527.2c-.49-1.93-.85-3.9-1.23-5.85s-.69-3.93-1-5.9-.55-4-.76-5.93l-.32-3-.24-3-.19-3-.1-3c0-1-.09-2-.1-3l0-3c0-15.93,2.73-31.5,5.85-46.48,1.56-7.6,3.34-15.17,5.68-22.69a91.47,91.47,0,0,1,4.25-11.16,49.1,49.1,0,0,1,2.93-5.42c.55-.89,1.13-1.7,1.72-2.51s1.17-1.62,1.8-2.4a72.81,72.81,0,0,1,17.58-16c3.25-2.19,6.57-4.16,9.72-6.17,1.58-1,3.09-2,4.62-3.07s3-2.16,4.46-3.28,2.91-2.27,4.31-3.48,2.8-2.41,4.17-3.63c2.69-2.52,5.35-5.07,7.83-7.8a159.49,159.49,0,0,0,13.84-17.11,188.12,188.12,0,0,0,11.58-18.55,188.7,188.7,0,0,0,9.35-19.42c.68-1.63,1.27-3.28,1.88-4.89s1.1-3.16,1.61-4.9c1-3.38,1.92-6.76,2.63-10.15a96.45,96.45,0,0,0,2.16-20.42c0-3.45-.18-7-.37-10.74a98.1,98.1,0,0,1-.07-12.81,40.73,40.73,0,0,1,1.37-7.7,36.44,36.44,0,0,1,3.22-7.71,39.72,39.72,0,0,1,2.19-3.48,31.48,31.48,0,0,1,2.93-3.48,36,36,0,0,1,6.51-5.23A54.19,54.19,0,0,1,150.37,205a88,88,0,0,1,12.83-2.71,141.11,141.11,0,0,1,24.58-1.06,282.54,282.54,0,0,1,46.73,6.14c15.19,3.22,30.08,7.21,44.73,11.84s29.05,9.83,43.24,15.53c7.1,2.81,14.1,5.89,21.1,8.93s13.89,6.33,20.72,9.77l-.74,2.07-22.22-5.22c-7.37-1.82-14.76-3.48-22.12-5.22-14.73-3.41-29.45-6.7-44.16-9.64s-29.42-5.59-44.11-7.57a332,332,0,0,0-43.63-3.47,146.23,146.23,0,0,0-20.79,1.27,66.14,66.14,0,0,0-9.39,2,30.59,30.59,0,0,0-7.53,3.12,13.6,13.6,0,0,0-2.39,1.8,8.29,8.29,0,0,0-.78.82,15.43,15.43,0,0,0-.89,1.29,12.64,12.64,0,0,0-1.29,2.7,18.58,18.58,0,0,0-.75,3.45,75.15,75.15,0,0,0-.39,9.91c0,3.8,0,7.87-.26,12a117.25,117.25,0,0,1-4,24.56c-1.08,4-2.33,7.87-3.77,11.65-.67,1.87-1.5,3.9-2.31,5.78s-1.72,3.74-2.64,5.54A170,170,0,0,1,102.59,349a193.05,193.05,0,0,1-36,30c-3.26,2.12-6.62,4.11-10,6s-6.62,3.66-9.73,5.61a66,66,0,0,0-8.71,6.47A53.06,53.06,0,0,0,31,405.06c-.56.69-1,1.46-1.52,2.2s-1,1.5-1.4,2.25a35,35,0,0,0-2.23,4.7,65.18,65.18,0,0,0-3,10.37c-.38,1.79-.7,3.6-1,5.41s-.52,3.65-.72,5.49c-.45,3.67-.67,7.39-.9,11.1-.37,7.52-.57,15-.45,22.36s.63,14.66,1.37,21.86c.2,1.8.39,3.59.63,5.38l.34,2.69.42,2.67.38,2.67.46,2.66q.45,2.65,1,5.3c.34,1.76.65,3.53,1.07,5.28s.72,3.52,1.17,5.26L27.86,528l1.37,5.43c.91,3.58,1.84,7,2.91,10.28a59.47,59.47,0,0,0,3.63,9.08,44.13,44.13,0,0,0,5,7.81A41.51,41.51,0,0,0,44,564.08c1.12,1.1,2.3,2.15,3.53,3.18a52.21,52.21,0,0,0,8.12,5.38,62.77,62.77,0,0,0,9.25,4.12,82.3,82.3,0,0,0,10.06,3,106.57,106.57,0,0,0,10.57,1.95c14.37,2,29.41,1.87,44.53.65Z"/><path class="cls-2" d="M348.45,720.72q8.67-4.83,16.82-10.16c1.35-.9,2.7-1.81,4-2.72s2.6-1.88,3.88-2.85c2.57-2,5.1-3.93,7.57-6a266.06,266.06,0,0,0,27.79-26.38c17.15-18.69,31.22-39.81,40.52-62.83l1.74-4.31,1.55-4.39c1.1-2.9,1.87-5.91,2.8-8.86.48-1.48.81-3,1.22-4.49s.83-3,1.15-4.51l1-4.56c.33-1.52.66-3,.92-4.56,1.12-6.1,1.81-12.31,2.33-18.56q.36-4.69.49-9.41c.12-3.15.14-6.3.1-9.46l-.11-4.73-.2-4.75-.34-4.74c-.11-1.58-.29-3.15-.42-4.74-.65-6.32-1.52-12.65-2.72-19s-2.66-12.6-4.37-18.87-3.69-12.52-5.87-18.76A147.51,147.51,0,0,1,467,496.36c1.15,3.16,2.26,6.35,3.23,9.57.53,1.61.93,3.25,1.38,4.88s.89,3.26,1.26,4.91a162.64,162.64,0,0,1,3.53,20,170.3,170.3,0,0,1-.16,40.92l-.34,2.57-.45,2.54-.9,5.08c-.3,1.7-.74,3.37-1.1,5s-.72,3.37-1.2,5c-1,3.31-1.82,6.65-3,9.89l-1.67,4.9-1.88,4.81a172.32,172.32,0,0,1-20,35.94,189.17,189.17,0,0,1-27.34,30.18,192.88,192.88,0,0,1-32.71,23.59,127,127,0,0,1-37.23,14.47Z"/><path class="cls-3" d="M498.48,372.71a149.27,149.27,0,0,1,17.6,3.92,159.14,159.14,0,0,1,17.07,6.1,149.29,149.29,0,0,1,16.37,8,166.1,166.1,0,0,1,29.89,21.17A161.58,161.58,0,0,1,592.47,425a133.65,133.65,0,0,1,11.38,14.78,116.22,116.22,0,0,1,9.23,16.43,104.74,104.74,0,0,1,6.32,18,93.88,93.88,0,0,1,2.6,19.09A126.28,126.28,0,0,1,617.62,531a146.45,146.45,0,0,1-14.41,34.88,133.53,133.53,0,0,1-10.6,15.79,105.87,105.87,0,0,1-13.18,14.16A66.84,66.84,0,0,1,562.5,607l-2.51,1-2.15.77c-1.28.47-2.47.94-3.64,1.47a43.5,43.5,0,0,0-6.64,3.65,41.39,41.39,0,0,0-10.67,10.45,49.91,49.91,0,0,0-3.84,6.64,62.78,62.78,0,0,0-2.9,7.33,77.12,77.12,0,0,0-2,7.89l-.82,4.32c-.33,1.61-.77,3.3-1.17,4.94a71.47,71.47,0,0,1-8,18.17A99.89,99.89,0,0,1,506.56,689c-2.09,2.38-4.34,4.55-6.55,6.76s-4.55,4.26-6.92,6.25c-4.69,4-9.58,7.81-14.59,11.33s-10.09,6.9-15.32,10a328.87,328.87,0,0,1-32.11,17c-11,5-22.17,9.6-33.55,13.53-5.72,2-11.49,3.71-17.34,5.18-2.92.71-5.86,1.39-8.83,1.88s-5.91,1.06-8.86,1.56c5.69-2,11.44-3.51,17-5.75s11-4.45,16.4-7,10.73-5.15,16-7.87,10.47-5.57,15.61-8.52c10.29-5.87,20.34-12.12,30-18.85a237.41,237.41,0,0,0,27.24-21.89c2.12-2,4.11-4,6.11-6.07s3.88-4.18,5.63-6.39A87.71,87.71,0,0,0,506,666.53a61.1,61.1,0,0,0,6-14.72c.25-1.28.55-2.48.8-3.81s.45-3,.72-4.51a93.2,93.2,0,0,1,2.18-9.53,70.78,70.78,0,0,1,3.48-9.42,66,66,0,0,1,5-8.94,57.35,57.35,0,0,1,14.58-14.73,58.44,58.44,0,0,1,9-5c1.55-.71,3.14-1.34,4.66-1.91l2.06-.75,1.64-.69a52.09,52.09,0,0,0,12.78-8.64c8.12-7.14,15-16.23,20.74-25.91a136.11,136.11,0,0,0,13.45-31,117.61,117.61,0,0,0,4.91-33.25,82.86,82.86,0,0,0-1.6-16.47,91.23,91.23,0,0,0-4.78-16,125.17,125.17,0,0,0-17.15-29.49,164.79,164.79,0,0,0-24.18-25A177.75,177.75,0,0,0,498.48,372.71Z"/><path class="cls-3" d="M489.64,404.1a106.53,106.53,0,0,1,17.79,12.29,130.41,130.41,0,0,1,15.29,15.44,142.73,142.73,0,0,1,12.65,17.78,133.17,133.17,0,0,1,9.79,19.64,113.25,113.25,0,0,1,6.22,21.31,71,71,0,0,1,.78,22.82,62.76,62.76,0,0,1-7.68,21.94,79.68,79.68,0,0,1-14.28,18c-11,10.5-24.1,18.19-37.64,24.17a109.58,109.58,0,0,1-10.71,4,99.7,99.7,0,0,1-11.2,2.68c-3.78.65-7.58,1.08-11.35,1.35s-7.51.34-11.2.29c-7.4-.09-14.64-.58-21.82-1.12s-14.27-1.23-21.36-1.87c-14.17-1.3-28.27-2.6-42.41-3.69s-28.28-2.11-42.44-2.88-28.32-1.45-42.25-1a111,111,0,0,0-20.4,2.35,55.56,55.56,0,0,0-9.5,3.11,69.62,69.62,0,0,0-9,4.75,99.93,99.93,0,0,0-16.37,12.67,98.06,98.06,0,0,0-13.53,15.75,78.1,78.1,0,0,0-9.44,18.37,61.77,61.77,0,0,0-2.58,10,56.62,56.62,0,0,0-.91,10.22,58.21,58.21,0,0,0,.92,10.21,59.77,59.77,0,0,0,2.75,9.9,72.84,72.84,0,0,0,9.63,18.21A61.49,61.49,0,0,0,224,705a56.81,56.81,0,0,0,18.44,8.29,67.41,67.41,0,0,0,20.18,1.87,84.9,84.9,0,0,0,20.05-3.63,74.26,74.26,0,0,0,18.28-8.26,29.66,29.66,0,0,0,3.66-2.77,10.94,10.94,0,0,0,1.24-1.32,1.47,1.47,0,0,0,.22-.35s0,0-.08.14a2.15,2.15,0,0,0-.15.69,3.42,3.42,0,0,0,.19,1.41,3.27,3.27,0,0,0,.65,1.12c.44.47.56.47.51.48a9.62,9.62,0,0,0-1.38-.3,41.83,41.83,0,0,0-4.68-.38c-6.78-.21-14,0-21.32-.18a117.87,117.87,0,0,1-22.38-2.39,51.14,51.14,0,0,1-11.54-3.93,28.72,28.72,0,0,1-10.64-8.59,24.08,24.08,0,0,1-3.42-6.5,27.73,27.73,0,0,1-1.44-6.92,38.77,38.77,0,0,1,1.31-12.92,66,66,0,0,1,10.51-21.43,81.42,81.42,0,0,1,16.32-16.85,68,68,0,0,1,10.16-6.45A61.71,61.71,0,0,1,280,611.37a78.45,78.45,0,0,1,23.51-2.59,213.83,213.83,0,0,1,22.13,2.06l21.15,2.95c3.49.45,7,.89,10.43,1.26l10.57,1.13c7.05.75,14.06,1.45,21.07,2a415.72,415.72,0,0,0,41.79,1.6,217.92,217.92,0,0,0,40.84-4.21,123.53,123.53,0,0,0,37.42-13.92,90.84,90.84,0,0,0,15.83-11.77A107.37,107.37,0,0,0,538.09,575a118.93,118.93,0,0,0,18.2-35.91c1-3.23,1.83-6.52,2.58-9.82s1.31-6.64,1.71-10,.68-6.74.84-10.13.1-6.79-.13-10.18a104.73,104.73,0,0,0-3.13-20.11,88.58,88.58,0,0,0-7.39-18.94,108.82,108.82,0,0,0-26.21-31.8,146,146,0,0,0-17-12.38c-3-1.86-6-3.66-9.15-5.35s-6.27-3.23-9.5-4.88a.81.81,0,0,1-.35-1.08.79.79,0,0,1,1-.38h0a182,182,0,0,1,19.71,8.6A146.11,146.11,0,0,1,527.79,424c11.73,8.55,22.3,19.16,30,31.9a97.62,97.62,0,0,1,9.36,20.3,110.83,110.83,0,0,1,4.6,21.87c.44,3.71.62,7.44.72,11.17s0,7.48-.35,11.21-.76,7.44-1.36,11.14-1.42,7.35-2.41,11a131.22,131.22,0,0,1-18.69,40.78A121.54,121.54,0,0,1,535,600.69a105.41,105.41,0,0,1-18,14.23c-13,8.21-27.41,13.47-42,16.82a222.68,222.68,0,0,1-44,5.17,390.29,390.29,0,0,1-43.62-1.61c-7.2-.64-14.36-1.4-21.48-2.22l-10.68-1.29c-3.6-.45-7.19-1-10.76-1.49L323.36,627A198.21,198.21,0,0,0,303,624.72a62.93,62.93,0,0,0-18.88,1.61,48.4,48.4,0,0,0-16.55,8,66.6,66.6,0,0,0-13.61,13.48,53.47,53.47,0,0,0-8.71,16.5,25.35,25.35,0,0,0-1.13,8.22,12.2,12.2,0,0,0,2.05,6.51,16.43,16.43,0,0,0,5.72,4.86,39.37,39.37,0,0,0,8.54,3.26,112,112,0,0,0,20,3c3.47.27,7,.45,10.53.63s7.14.33,10.88.66a49.42,49.42,0,0,1,5.94.81,16.85,16.85,0,0,1,3.74,1.2,8.45,8.45,0,0,1,2.7,2,6.63,6.63,0,0,1,1.35,2.25,6.71,6.71,0,0,1,.37,2.73,8.1,8.1,0,0,1-1.07,3.34,12.39,12.39,0,0,1-1.31,1.84A21.09,21.09,0,0,1,311,708a40.91,40.91,0,0,1-5,3.44,83.53,83.53,0,0,1-21,8.28,92.52,92.52,0,0,1-22.1,2.88,76.19,76.19,0,0,1-22.14-3,65.69,65.69,0,0,1-35.54-25.75,81.76,81.76,0,0,1-10-19.62,68,68,0,0,1-2.89-10.7,63,63,0,0,1-1-11,61.9,61.9,0,0,1,.93-11.05,69.35,69.35,0,0,1,2.7-10.73,83.13,83.13,0,0,1,4.2-10.2,96.78,96.78,0,0,1,5.45-9.55,110.26,110.26,0,0,1,13.75-17.08,116.77,116.77,0,0,1,16.77-14.24,76.72,76.72,0,0,1,9.63-5.74,65.91,65.91,0,0,1,10.6-4.09,119.16,119.16,0,0,1,21.83-3.89c7.27-.71,14.49-1,21.69-1.27s14.38-.31,21.55-.27c14.33.09,28.65.37,43,1.06,7.16.38,14.32.78,21.46,1.3s14.28,1.08,21.38,1.75l21.23,1.92c7,.6,14,1.13,20.87,1.28,3.43.07,6.81,0,10.17-.1s6.64-.5,9.89-1a84.9,84.9,0,0,0,9.61-2.13,96.7,96.7,0,0,0,9.4-3.24C500,560,512.07,553.33,522,544.47a69.27,69.27,0,0,0,12.85-14.88,52.79,52.79,0,0,0,7.22-17.87,64.26,64.26,0,0,0,.27-19.75,105.23,105.23,0,0,0-4.72-20,139.35,139.35,0,0,0-19.08-37A127.13,127.13,0,0,0,505,419a112.55,112.55,0,0,0-16.2-13.55.8.8,0,0,1,.83-1.37Z"/><path class="cls-4" d="M504.89,284.94a86.54,86.54,0,0,1,25.82,2.42,96.83,96.83,0,0,1,12.6,4c2.05.84,4.12,1.67,6.11,2.68,1,.49,2,1,3,1.47s2,1.06,2.94,1.61,2,1.11,2.89,1.72l2.86,1.78c1,.61,1.84,1.29,2.77,1.94s1.85,1.29,2.72,2l2.65,2.11,1.33,1.06,1.26,1.13c1.7,1.5,3.32,3.06,4.92,4.65a112.38,112.38,0,0,1,16.5,21.26,110.18,110.18,0,0,1,11,24.61,97.94,97.94,0,0,1,3,13.23c.16,1.12.35,2.24.48,3.37l.36,3.38c.14,2.28.25,4.54.25,6.82a69.93,69.93,0,0,1-5,26.61A53.94,53.94,0,0,1,588,434a96.66,96.66,0,0,0,4.43-11.76c.55-2,1.11-3.91,1.46-5.9s.74-3.92,1-5.88a81.11,81.11,0,0,0-.56-23.25c-2.47-15.25-8.5-29.81-16.44-43.18a143.31,143.31,0,0,0-13.56-19,120.64,120.64,0,0,0-16.74-16.22C535.26,298.91,520.78,291.37,504.89,284.94Z"/><path class="cls-3" d="M591.32,352c2-4.66,3.76-9.27,5.25-13.91a116.54,116.54,0,0,0,3.57-14,96.45,96.45,0,0,0,1.33-27.76,81.88,81.88,0,0,0-2.42-13.25,73.16,73.16,0,0,0-4.58-12.37,62.64,62.64,0,0,0-15.42-20.41,64.11,64.11,0,0,0-22.41-12.41,73.9,73.9,0,0,0-12.91-2.88c-1.11-.11-2.21-.27-3.33-.36s-2.24-.18-3.37-.22c-2.25-.11-4.52-.15-6.79-.07a101.12,101.12,0,0,0-27.44,4.76,118.53,118.53,0,0,0-13.49,5.15c-4.45,2-8.83,4.3-13.24,6.78,12.47-15.86,31.56-27.22,52.73-30.77a79.4,79.4,0,0,1,32.44,1.17,70.19,70.19,0,0,1,48.85,42.45,76.37,76.37,0,0,1,4.44,15.87,79.45,79.45,0,0,1,1,16.19A84,84,0,0,1,601,340.31,75.1,75.1,0,0,1,591.32,352Z"/><path class="cls-3" d="M485.48,202.33a146.09,146.09,0,0,0,9.44-30.26,66.43,66.43,0,0,0,1-15.27l-.13-1.87-.26-1.84c-.13-1.23-.41-2.41-.65-3.6a33.33,33.33,0,0,0-2.36-6.71A27.39,27.39,0,0,0,488.7,137a30.8,30.8,0,0,0-5.09-4.78,47.69,47.69,0,0,0-12.81-6.68c-9.37-3.33-19.66-4.87-30-5.84s-21-1.21-31.56-1.28-21.29.11-32,.26l-16,.27-16,.38c-10.75.24-21.62.31-32.5-.14-5.44-.18-10.87-.59-16.29-1-2.71-.25-5.43-.45-8.13-.75s-5.41-.56-8.1-.92-5.39-.69-8.07-1.09-5.37-.76-8.07-1.21c-5.39-.87-10.83-1.94-16.2-3.35a129.28,129.28,0,0,1-15.8-5.22,113.9,113.9,0,0,1-14.89-7.38l-3.53-2.16-3.43-2.19c-2.29-1.48-4.55-3-6.77-4.62a114.27,114.27,0,0,1-12.75-10.48,51.48,51.48,0,0,1-10.35-13.33,23.66,23.66,0,0,1-2.53-8.54,18.67,18.67,0,0,1,1.44-9,23.68,23.68,0,0,1,5.16-7.28,38.14,38.14,0,0,1,6.78-5.27,61.67,61.67,0,0,1,7.47-3.92,45.73,45.73,0,0,1,8.11-2.64,50.52,50.52,0,0,1,17-1,33,33,0,0,1,8.64,2.07,15.74,15.74,0,0,1,4.37,2.6,8.7,8.7,0,0,1,2,2.55,7,7,0,0,1,.71,3.79,8.55,8.55,0,0,1-1,3.2,14.14,14.14,0,0,1-1.54,2.22,31,31,0,0,1-3.25,3.24c-2.13,1.87-4.33,3.54-6,5.13a9.12,9.12,0,0,0-.92,1c-.22.25-.14.48,0-.21a1.73,1.73,0,0,0,0-.64,2.59,2.59,0,0,0-.19-.66,1,1,0,0,0-.15-.24.38.38,0,0,0-.09-.15,1.47,1.47,0,0,1-.13-.16c-.07-.07.21.08.56.17a11.91,11.91,0,0,0,2.86.37,20.74,20.74,0,0,0,3.32-.19c4.46-.59,8.79-2.6,10.85-5.43a10.14,10.14,0,0,0,1.86-5,13.18,13.18,0,0,0,.08-1.41c0-.24,0-.47,0-.68a3.23,3.23,0,0,0-.06-.48,9.74,9.74,0,0,0-.8-2.45,16.47,16.47,0,0,0-3.53-4.82,35.38,35.38,0,0,0-5.36-4.24A64.62,64.62,0,0,0,222.78,21a105.73,105.73,0,0,0-29.38-6.21c-1.25-.08-2.48-.11-3.73-.15l-3.93-.07c-2.56,0-5.05,0-7.49.18a52.91,52.91,0,0,0-13.81,2.63,41.72,41.72,0,0,0-11.91,6.46,57.13,57.13,0,0,0-10,9.94,49.18,49.18,0,0,0-6.95,11.83,30.12,30.12,0,0,0-2.25,12.27,8,8,0,0,0,.14,1.47l.17,1.45a17.1,17.1,0,0,0,.69,2.61,20.37,20.37,0,0,0,2.6,4.85,52.1,52.1,0,0,0,9.75,9.54,186.3,186.3,0,0,0,25.9,16.32,238.87,238.87,0,0,0,28.1,13.18c9.6,3.75,19.57,6.57,29.95,9.63a227.16,227.16,0,0,1,31.25,11.29c2.51,1.19,5,2.44,7.49,3.67l7.3,4c4.82,2.79,9.59,5.68,14.13,8.91a174.87,174.87,0,0,1,25.28,21.51q5.78,5.89,11.09,12.15c3.52,4.17,6.89,8.42,10.21,12.68a231.56,231.56,0,0,1,32.33,56.29l-1.45.68a273.25,273.25,0,0,0-37.14-51.69c-7.22-7.88-14.55-15.47-22.35-22.44-3.89-3.5-7.95-6.77-12.1-9.89s-8.42-6.05-12.81-8.78-8.92-5.19-13.52-7.54l-7-3.36-7.12-3.06a212.52,212.52,0,0,0-29.65-9.43l-7.81-2-3.95-1-4-1.1c-2.65-.7-5.3-1.57-8-2.36s-5.28-1.76-7.92-2.66a231.64,231.64,0,0,1-30.39-13.58c-4.91-2.53-9.69-5.31-14.47-8.21a147.48,147.48,0,0,1-14-9.71,68.22,68.22,0,0,1-13-13.14,35.43,35.43,0,0,1-4.76-9.39,33.37,33.37,0,0,1-1.24-5.19L116.83,61a18.05,18.05,0,0,1-.16-2.54,46.62,46.62,0,0,1,3.81-19.08A66.06,66.06,0,0,1,130.1,23.7a72,72,0,0,1,13.12-12.38A57.24,57.24,0,0,1,159.72,3,68,68,0,0,1,177.51.06c2.93-.1,5.81-.07,8.6,0q2.1.09,4.11.21c1.44.1,2.88.18,4.31.33a113.46,113.46,0,0,1,16.86,2.95A104.42,104.42,0,0,1,227.6,9.06a76.86,76.86,0,0,1,15.23,8.6,45.79,45.79,0,0,1,6.83,6.24,27.32,27.32,0,0,1,5.27,8.54,21.1,21.1,0,0,1,1.24,5.31,14.39,14.39,0,0,1,.06,1.52c0,.46,0,.9-.06,1.33a20.39,20.39,0,0,1-.34,2.59,20.05,20.05,0,0,1-4.52,9.59,22,22,0,0,1-8.38,5.81,30.32,30.32,0,0,1-9.21,2.07,29.82,29.82,0,0,1-4.72,0,19.26,19.26,0,0,1-5-1.07,10.21,10.21,0,0,1-3-1.69,6.19,6.19,0,0,1-.85-.85c-.15-.18-.28-.35-.41-.53s-.27-.46-.39-.69a6,6,0,0,1-.53-1.6,6.54,6.54,0,0,1,0-1.65,6.66,6.66,0,0,1,.79-2.34,9.3,9.3,0,0,1,1-1.43,17,17,0,0,1,1.85-1.85c2.36-2,4.58-3.41,6.56-5a23.08,23.08,0,0,0,2.58-2.29,5,5,0,0,0,1.11-1.6c0-.06,0,0,0-.11a1.92,1.92,0,0,0-.44-.63,9.11,9.11,0,0,0-2.45-1.6,26,26,0,0,0-6.88-2,45,45,0,0,0-15,.38,39.46,39.46,0,0,0-7.26,2.1,36.63,36.63,0,0,0-3.47,1.58c-1.15.58-2.28,1.18-3.37,1.83-4.33,2.58-8.23,6-10.12,10.22a13.4,13.4,0,0,0-1.07,6.67,18.94,18.94,0,0,0,2.08,6.78c2.24,4.39,5.75,8.26,9.54,11.77,7.69,7,16.8,12.57,26.1,17.45a104.73,104.73,0,0,0,29.44,9.73c5.11.92,10.28,1.52,15.54,2,2.62.23,5.28.4,7.93.57s5.29.33,7.94.45q15.9.81,31.76.64,4,0,7.94-.12l7.95-.18,16-.54c5.36-.22,10.74-.33,16.15-.46s10.78-.08,16.17-.11c10.75-.05,21.55,0,32.39.38q8.13.27,16.3.85t16.38,1.65c10.92,1.48,22,3.67,32.62,8.16a57,57,0,0,1,15,9.19,40.25,40.25,0,0,1,6.1,6.73,36.55,36.55,0,0,1,4.42,8,42.84,42.84,0,0,1,2.77,17.35,72.45,72.45,0,0,1-2.74,16.61,126.4,126.4,0,0,1-13.47,29.74Z"/><path class="cls-4" d="M583.59,233.77c-2.19-5.85-4.28-11.39-6.61-16.73s-4.82-10.44-7.49-15.34a136.2,136.2,0,0,0-18.89-26.62c-.92-1-1.89-1.92-2.83-2.88s-1.83-2-2.86-2.88l-3-2.77c-1-.88-2.06-1.75-3.08-2.65a143.6,143.6,0,0,0-13.21-9.82A168.84,168.84,0,0,0,511,145.5c-5.14-2.73-10.53-5.16-16.22-7.77a49.39,49.39,0,0,1,9.3-1.08,65.88,65.88,0,0,1,9.41.36,76.18,76.18,0,0,1,18.5,4.38,81.86,81.86,0,0,1,17.15,8.82c1.33.93,2.64,1.88,4,2.83s2.51,2.06,3.76,3.09c2.46,2.12,4.73,4.46,7,6.77l3.16,3.71,1.56,1.88,1.42,2c.93,1.34,1.87,2.66,2.78,4s1.66,2.79,2.46,4.2l1.19,2.11,1.05,2.18c.69,1.46,1.39,2.91,2,4.4l1.7,4.51c.57,1.49,1,3,1.43,4.58a79.43,79.43,0,0,1,3,18.72,71.65,71.65,0,0,1-.29,9.39A49.79,49.79,0,0,1,583.59,233.77Z"/><path class="cls-2" d="M354.35,244.31a1.5,1.5,0,0,1-.06.74,1.45,1.45,0,0,1-.22.45,4.15,4.15,0,0,1-.48.63,10.81,10.81,0,0,1-1,.93,25.19,25.19,0,0,1-2.09,1.56c-1.43,1-2.89,1.84-4.38,2.68-3,1.66-6,3.15-9.12,4.56a162.83,162.83,0,0,1-19,7.21,133.86,133.86,0,0,1-40.33,6.44,87.16,87.16,0,0,1-20.63-2.6,69.31,69.31,0,0,1-19.45-8.17,105.44,105.44,0,0,1-30.43-29,96.86,96.86,0,0,1-9.91-18.94c-2.64-6.53-4.57-13-7.11-18.69a102.18,102.18,0,0,0-9.25-16.53c-1.77-2.64-3.69-5.18-5.66-7.68s-4.09-4.89-6.28-7.2c-8.7-9.26-18.8-17.27-29.93-22.71a68,68,0,0,0-8.5-3.53c-1.44-.53-2.9-.91-4.35-1.36s-2.93-.76-4.41-1-3-.48-4.43-.67c-.74-.09-1.48-.11-2.22-.17s-1.49-.09-2.22-.1a52.35,52.35,0,0,0-9,.56c-12,1.8-24.12,6.81-32.9,15a35,35,0,0,0-9.64,14.49,35.56,35.56,0,0,0-1,17.65,51.05,51.05,0,0,0,6.78,17.38A53.58,53.58,0,0,0,79.59,210.4a33.09,33.09,0,0,0,7.94,4.65,16.36,16.36,0,0,0,8.38,1.17,17.5,17.5,0,0,0,7.8-3.64,19.16,19.16,0,0,0,3.16-3.14,16.87,16.87,0,0,0,3-5.77,13.6,13.6,0,0,0,.39-2.08,7.43,7.43,0,0,0,0-2,8.48,8.48,0,0,0-.41-1.95,18.76,18.76,0,0,0-5-7.31A54.46,54.46,0,0,0,88.75,180c-1.49-.61-3-1.14-4.59-1.64l-2.45-.8c-.42-.14-.86-.3-1.35-.5-.23-.1-.48-.21-.76-.36a6.15,6.15,0,0,1-.89-.57,3.89,3.89,0,0,1-.53-.49,3.28,3.28,0,0,1-.53-.73,3.38,3.38,0,0,1-.41-2,4.34,4.34,0,0,1,1.2-2.5,10.36,10.36,0,0,1,2.65-2,27.75,27.75,0,0,1,5.14-2.14,44.26,44.26,0,0,1,10.57-1.88,31.92,31.92,0,0,1,5.44.11c.45,0,.91.07,1.36.12l1.33.22a21.56,21.56,0,0,1,2.66.52,46.58,46.58,0,0,1,19.18,9.47,40.42,40.42,0,0,1,7.4,8.08A31.58,31.58,0,0,1,138.83,193a33.82,33.82,0,0,1,1,5.58l.09,2.84a26.69,26.69,0,0,1-.16,2.83,38,38,0,0,1-2.72,10.88A59.12,59.12,0,0,1,124.8,233c-.63.65-1.2,1.25-1.86,1.87l-2,1.85a48.44,48.44,0,0,1-4.23,3.47,65.74,65.74,0,0,1-9.26,5.78,70.79,70.79,0,0,1-20.65,6.8,76.24,76.24,0,0,1-21.81.54,75,75,0,0,1-21.22-5.92,68.37,68.37,0,0,1-18.54-12.3,77.69,77.69,0,0,1-13.87-17.26,87.48,87.48,0,0,1-8.81-20.16,56.85,56.85,0,0,1-1.38-5.64l-.8-5.6c-.17-1.88-.23-3.77-.34-5.66s.08-3.78.12-5.68a76.42,76.42,0,0,1,4.78-21.91,110.19,110.19,0,0,1,9.76-19.45c3.75-6.05,7.85-11.71,11.85-17.17s8.39-11.14,13.05-16.42a149.85,149.85,0,0,1,32.22-28,107,107,0,0,1,19.52-9.86A91.12,91.12,0,0,1,135,56.56a89.1,89.1,0,0,1,21.58,5.25,116.49,116.49,0,0,1,19.48,9.63,193.86,193.86,0,0,1,17.26,12c2.74,2.1,5.41,4.26,8,6.39l4,3.25c1.37,1.13,2.71,2.29,4,3.46a197.74,197.74,0,0,1,14.83,14.84,205.19,205.19,0,0,1,13.13,16.18c4.1,5.58,8,11.34,11.51,17.28,1.84,2.93,3.46,6,5.14,9,.85,1.5,1.61,3.12,2.41,4.67s1.5,3.19,2.21,4.79c1.39,3.24,2.64,6.53,3.73,9.82s2.06,6.56,3,9.75,2,6.28,3.23,9.3a84.24,84.24,0,0,0,4.17,8.81c.81,1.42,1.64,2.84,2.51,4.23s1.77,2.75,2.73,4.15c1.91,2.79,3.79,5.56,5.77,8.24a84.38,84.38,0,0,0,13.26,14.7,58.13,58.13,0,0,0,8,5.7l2.16,1.2c.73.38,1.48.72,2.22,1.08a46.79,46.79,0,0,0,4.57,1.9,57,57,0,0,0,19.52,3.28,71,71,0,0,0,10-.77c1.65-.24,3.3-.52,5-.82.83-.15,1.67-.3,2.52-.43.44-.06.87-.11,1.34-.14a5.65,5.65,0,0,1,.8,0,2,2,0,0,1,.55.18A1.22,1.22,0,0,1,354.35,244.31Zm-1.56.37a.46.46,0,0,0,.21.29H353a3.39,3.39,0,0,0-.47,0c-.37,0-.77.08-1.18.14-.8.13-1.63.29-2.46.44-1.66.32-3.33.62-5,.88a79,79,0,0,1-10.19.91,60.92,60.92,0,0,1-20.3-2.88,48.41,48.41,0,0,1-4.84-1.8c-.79-.35-1.59-.68-2.37-1l-2.31-1.17a68,68,0,0,1-8.72-5.6,95,95,0,0,1-14.66-14.52c-2.18-2.63-4.29-5.3-6.38-7.94-1.05-1.32-2.09-2.74-3.13-4.1s-2-2.85-3-4.28a92.87,92.87,0,0,1-5.23-9.1c-1.55-3.14-2.92-6.35-4.19-9.53s-2.46-6.29-3.75-9.32-2.69-5.94-4.2-8.8c-.78-1.42-1.57-2.83-2.39-4.22s-1.66-2.76-2.6-4.13c-1.83-2.75-3.63-5.51-5.58-8.17-3.79-5.39-7.88-10.56-12.15-15.55s-8.73-9.81-13.4-14.38-9.51-9-14.53-13c-1.26-1-2.51-2-3.78-3l-4-3c-2.69-2-5.38-4-8.05-5.89C173.42,88.23,162.55,81.38,151,77.31a77.08,77.08,0,0,0-17.73-4,75.78,75.78,0,0,0-18.12.36,87.25,87.25,0,0,0-34.17,13A121.52,121.52,0,0,0,65.76,97.93,160.6,160.6,0,0,0,52,111.33c-4.36,4.77-8.38,9.74-12.39,15.06s-8,10.57-11.44,15.93a96.67,96.67,0,0,0-8.75,16.5,60.41,60.41,0,0,0-4.23,17.4c-.05,1.47-.21,2.95-.2,4.43s.07,3,.17,4.45l.52,4.43a41.66,41.66,0,0,0,.95,4.21,76.71,76.71,0,0,0,6.93,17,64.5,64.5,0,0,0,11,14.52,58.88,58.88,0,0,0,14.68,10.54,62.27,62.27,0,0,0,17.42,5.65,65.31,65.31,0,0,0,18.53.53,60.45,60.45,0,0,0,18-4.87,57.13,57.13,0,0,0,8.15-4.49,39.1,39.1,0,0,0,3.74-2.75l1.8-1.48c.6-.5,1.22-1.09,1.8-1.62A50.93,50.93,0,0,0,130,212.05a30,30,0,0,0,2.62-8.56,20.41,20.41,0,0,0,.22-2.21l0-2.22a26.06,26.06,0,0,0-.61-4.39c-1.19-5.86-4.75-11.15-9.35-15.34a41,41,0,0,0-16.58-8.71,18.16,18.16,0,0,0-2.3-.51l-1.15-.22c-.39-.06-.77-.09-1.16-.14a26.92,26.92,0,0,0-4.67-.22A37.34,37.34,0,0,0,87.7,171a23.09,23.09,0,0,0-4.21,1.67,6.15,6.15,0,0,0-1.42,1c-.13.11,0,.18,0-.31a3.18,3.18,0,0,0,0-.41,2.68,2.68,0,0,0-.15-.39c-.06-.12-.15-.21-.15-.23s-.1-.07-.07-.06l.18.11a2.93,2.93,0,0,0,.38.17c.29.13.65.26,1,.39l2.36.78c1.63.53,3.3,1.11,4.93,1.79a66.51,66.51,0,0,1,9.32,4.88,51.73,51.73,0,0,1,8.44,6.43,24.22,24.22,0,0,1,6.33,9.24,14.09,14.09,0,0,1,.68,3,13,13,0,0,1,0,3.06,20.2,20.2,0,0,1-.5,2.9,22.66,22.66,0,0,1-3.83,7.65,24.7,24.7,0,0,1-3.88,4.1,22.89,22.89,0,0,1-10.22,5.08,22.36,22.36,0,0,1-11.5-1.05,41.08,41.08,0,0,1-9.72-5.1,60.33,60.33,0,0,1-15-15.32,61,61,0,0,1-9-19.66,44.9,44.9,0,0,1,0-22.39,42.59,42.59,0,0,1,4.44-10.6A50.41,50.41,0,0,1,63,138.67a64.52,64.52,0,0,1,17.9-13,77.41,77.41,0,0,1,20.81-7.07,64.07,64.07,0,0,1,22.44-.23c1.86.26,3.67.71,5.5,1.1s3.6.93,5.34,1.54a83.62,83.62,0,0,1,10.23,4.1c13.22,6.31,24.56,15.48,34.15,26A116.82,116.82,0,0,1,202,187.29c2.58,6.82,4.18,13.41,6.16,19.55a85.82,85.82,0,0,0,7.64,17.45,94.13,94.13,0,0,0,5.23,8c1.89,2.57,4,5.09,6.13,7.51a90.82,90.82,0,0,0,14.31,13.08,63.13,63.13,0,0,0,17.12,8.81,78.05,78.05,0,0,0,19.26,3.75,105.19,105.19,0,0,0,19.9-.55A132.56,132.56,0,0,0,317.36,261a145,145,0,0,0,18.95-6.7q4.6-2,9-4.43c1.46-.81,2.9-1.66,4.27-2.58.68-.47,1.36-.94,2-1.45a9.32,9.32,0,0,0,.85-.79,2.9,2.9,0,0,0,.3-.38C352.82,244.55,352.74,244.47,352.79,244.68Z"/><ellipse class="cls-5" cx="277.31" cy="417.98" rx="76.12" ry="61.33" transform="translate(-222.45 460.98) rotate(-61.36)"/><path class="cls-6" d="M215.17,406.68c-12,26.32.93,62.25,15.45,64.61,12.85,2.09,27.35-22,33.13-37.87,6.76-18.53,10.12-49.17-3-56C248.57,371,224.35,386.59,215.17,406.68Z"/><ellipse class="cls-6" cx="306.51" cy="394.34" rx="15.29" ry="14.08" transform="translate(-157.8 578.38) rotate(-73.76)"/><path class="cls-1" d="M131.44,515.2a162.36,162.36,0,0,1-27.59,9.93A166,166,0,0,1,74.44,530c-2.5.23-5,.3-7.53.43s-5,.12-7.56.06c-5.05,0-10.12-.3-15.18-.82A184.63,184.63,0,0,1,14,524.15l-.1,0a11.05,11.05,0,1,1,5.77-21.34,11.92,11.92,0,0,1,2,.74,165.31,165.31,0,0,0,25.62,10c4.43,1.33,8.94,2.43,13.5,3.36,2.28.49,4.58.86,6.89,1.26s4.63.7,7,.93A158,158,0,0,0,131.44,515.2Z"/></g></g></svg>